# xmcd
#
# Track frame offsets: 
#        183
#        17765
#        34715
#        52655
#        67893
#        84190
#        101608
#        120080
#        137525
#        156150
#        173168
#
# Disc length: 2591 seconds
#
# Revision: 7
# Processed by: cddbd v1.5.2PL0 Copyright (c) Steve Scherf et al.
# Submitted via: ExactAudioCopy v1.0b3
#
DISCID=730a1d0b,800a1d0b
DTITLE=Wolle Kriwanek - Schwabenrock (100% Reine Wolle)
DYEAR=1982
DGENRE=Schwoba-Rock
TTITLE0=Stroﬂaboh
TTITLE1=I bin f¸r die bloﬂ der Neger
TTITLE2=UFO
TTITLE3=Es schneielet
TTITLE4=Drauﬂa em Wald
TTITLE5=I fahr Daimler
TTITLE6=Reggae di uf
TTITLE7=Enne denne dubbe denne
TTITLE8=Hey Joe
TTITLE9=Herbertstr.
TTITLE10=Gib mir bitte a Chance
EXTD=Year: 1982
EXTT0=
EXTT1=
EXTT2=
EXTT3=
EXTT4=
EXTT5=
EXTT6=
EXTT7=
EXTT8=
EXTT9=
EXTT10=
PLAYORDER=
